<?xml version="1.0" encoding="UTF-8" standalone="no"?>
<svg
   xmlns:dc="http://purl.org/dc/elements/1.1/"
   xmlns:cc="http://creativecommons.org/ns#"
   xmlns:rdf="http://www.w3.org/1999/02/22-rdf-syntax-ns#"
   xmlns:svg="http://www.w3.org/2000/svg"
   xmlns="http://www.w3.org/2000/svg"
   xmlns:sodipodi="http://sodipodi.sourceforge.net/DTD/sodipodi-0.dtd"
   xmlns:inkscape="http://www.inkscape.org/namespaces/inkscape"
   width="18px"
   height="18px"
   viewBox="0 0 18 18"
   version="1.1"
   id="svg3565"
   inkscape:version="0.91 r13725"
   sodipodi:docname="cancel.svg">
  <metadata
     id="metadata3578">
    <rdf:RDF>
      <cc:Work
         rdf:about="">
        <dc:format>image/svg+xml</dc:format>
        <dc:type
           rdf:resource="http://purl.org/dc/dcmitype/StillImage" />
      </cc:Work>
    </rdf:RDF>
  </metadata>
  <sodipodi:namedview
     pagecolor="#ffffff"
     bordercolor="#666666"
     borderopacity="1"
     objecttolerance="10"
     gridtolerance="10"
     guidetolerance="10"
     inkscape:pageopacity="0"
     inkscape:pageshadow="2"
     inkscape:window-width="1920"
     inkscape:window-height="1030"
     id="namedview3576"
     showgrid="false"
     inkscape:zoom="13.111111"
     inkscape:cx="9"
     inkscape:cy="9"
     inkscape:window-x="1920"
     inkscape:window-y="0"
     inkscape:window-maximized="1"
     inkscape:current-layer="svg3565" />
  <!-- Generator: Sketch 46.1 (44463) - http://www.bohemiancoding.com/sketch -->
  <title
     id="title3567">cancel</title>
  <desc
     id="desc3569">Created with Sketch.</desc>
  <defs
     id="defs3571" />
  <g
     id="Material-Icons"
     stroke="none"
     stroke-width="1"
     fill="none"
     fill-rule="evenodd">
    <g
       id="cancel"
       fill-rule="nonzero"
       fill="#000000">
      <path
         d="M9,1.5 C4.8525,1.5 1.5,4.8525 1.5,9 C1.5,13.1475 4.8525,16.5 9,16.5 C13.1475,16.5 16.5,13.1475 16.5,9 C16.5,4.8525 13.1475,1.5 9,1.5 Z M12.75,11.6925 L11.6925,12.75 L9,10.0575 L6.3075,12.75 L5.25,11.6925 L7.9425,9 L5.25,6.3075 L6.3075,5.25 L9,7.9425 L11.6925,5.25 L12.75,6.3075 L10.0575,9 L12.75,11.6925 Z"
         id="Shape" />
    </g>
  </g>
  <path
     style="fill:#ffffff"
     d="M 5.8118854,12.195784 5.3191277,11.698607 6.6332927,10.382831 C 7.3560834,9.6591535 7.9474576,9.0334476 7.9474576,8.9923729 c 0,-0.041075 -0.5913742,-0.6667807 -1.3141649,-1.3904577 L 5.3191277,6.2861388 5.8118854,5.7889619 6.3046431,5.2917849 7.6599373,6.6455102 9.0152315,7.9992355 10.350044,6.6660575 11.684857,5.3328796 12.18062,5.8286423 12.676382,6.324405 11.341559,7.6575935 10.006736,8.990782 l 1.352334,1.353901 1.352333,1.353901 -0.492769,0.497189 -0.492769,0.497188 L 10.37056,11.339224 9.0152542,9.9854876 7.6599487,11.339224 6.3046431,12.692961 5.8118854,12.195784 Z"
     id="path3580"
     inkscape:connector-curvature="0" />
</svg>
