<?xml version="1.0" encoding="UTF-8" standalone="no"?>
<svg
   xmlns:dc="http://purl.org/dc/elements/1.1/"
   xmlns:cc="http://creativecommons.org/ns#"
   xmlns:rdf="http://www.w3.org/1999/02/22-rdf-syntax-ns#"
   xmlns:svg="http://www.w3.org/2000/svg"
   xmlns="http://www.w3.org/2000/svg"
   xmlns:sodipodi="http://sodipodi.sourceforge.net/DTD/sodipodi-0.dtd"
   xmlns:inkscape="http://www.inkscape.org/namespaces/inkscape"
   width="18px"
   height="18px"
   viewBox="0 0 18 18"
   version="1.1"
   id="svg3514"
   inkscape:version="0.91 r13725"
   sodipodi:docname="checkbox-checked-readonly.svg">
  <metadata
     id="metadata3527">
    <rdf:RDF>
      <cc:Work
         rdf:about="">
        <dc:format>image/svg+xml</dc:format>
        <dc:type
           rdf:resource="http://purl.org/dc/dcmitype/StillImage" />
      </cc:Work>
    </rdf:RDF>
  </metadata>
  <sodipodi:namedview
     pagecolor="#ffffff"
     bordercolor="#666666"
     borderopacity="1"
     objecttolerance="10"
     gridtolerance="10"
     guidetolerance="10"
     inkscape:pageopacity="0"
     inkscape:pageshadow="2"
     inkscape:window-width="1920"
     inkscape:window-height="1030"
     id="namedview3525"
     showgrid="false"
     inkscape:zoom="13.111111"
     inkscape:cx="9"
     inkscape:cy="9"
     inkscape:window-x="1920"
     inkscape:window-y="0"
     inkscape:window-maximized="1"
     inkscape:current-layer="svg3514" />
  <!-- Generator: Sketch 46.1 (44463) - http://www.bohemiancoding.com/sketch -->
  <title
     id="title3516">checkbox-checked-readonly</title>
  <desc
     id="desc3518">Created with Sketch.</desc>
  <defs
     id="defs3520" />
  <g
     id="Material-Icons"
     stroke="none"
     stroke-width="1"
     fill="none"
     fill-rule="evenodd"
     opacity="0.5">
    <g
       id="checkbox-checked-readonly"
       fill-rule="nonzero"
       fill="#000000">
      <path
         d="M16,0 L2,0 C0.89,0 0,0.9 0,2 L0,16 C0,17.1 0.89,18 2,18 L16,18 C17.11,18 18,17.1 18,16 L18,2 C18,0.9 17.11,0 16,0 Z M7,14 L2,9 L3.41,7.59 L7,11.17 L14.59,3.58 L16,5 L7,14 Z"
         id="Shape" />
    </g>
  </g>
  <path
     style="fill:#ffffff"
     d="M 4.5333024,11.451105 2.073417,8.9903464 2.7424337,8.3244293 3.4114504,7.6585124 5.1640016,9.412307 c 0.9639032,0.964587 1.7870245,1.753795 1.8291583,1.753795 0.042134,0 1.7668024,-1.689937 3.8325971,-3.7554152 l 3.75599,-3.7554149 0.687767,0.6845817 0.687769,0.6845818 -4.443228,4.4437145 C 9.0702803,11.912193 7.0533589,13.911864 7.0320078,13.911864 c -0.021351,0 -1.1457685,-1.107341 -2.4987054,-2.460759 z"
     id="path3529"
     inkscape:connector-curvature="0" />
</svg>
