<?xml version="1.0" encoding="UTF-8" standalone="no"?>
<svg
   xmlns:dc="http://purl.org/dc/elements/1.1/"
   xmlns:cc="http://creativecommons.org/ns#"
   xmlns:rdf="http://www.w3.org/1999/02/22-rdf-syntax-ns#"
   xmlns:svg="http://www.w3.org/2000/svg"
   xmlns="http://www.w3.org/2000/svg"
   xmlns:sodipodi="http://sodipodi.sourceforge.net/DTD/sodipodi-0.dtd"
   xmlns:inkscape="http://www.inkscape.org/namespaces/inkscape"
   width="18px"
   height="18px"
   viewBox="0 0 18 18"
   version="1.1"
   id="svg3389"
   inkscape:version="0.91 r13725"
   sodipodi:docname="checkbox-checked-filled.svg">
  <metadata
     id="metadata3402">
    <rdf:RDF>
      <cc:Work
         rdf:about="">
        <dc:format>image/svg+xml</dc:format>
        <dc:type
           rdf:resource="http://purl.org/dc/dcmitype/StillImage" />
        <dc:title>checkbox-checked</dc:title>
      </cc:Work>
    </rdf:RDF>
  </metadata>
  <sodipodi:namedview
     pagecolor="#ffffff"
     bordercolor="#666666"
     borderopacity="1"
     objecttolerance="10"
     gridtolerance="10"
     guidetolerance="10"
     inkscape:pageopacity="0"
     inkscape:pageshadow="2"
     inkscape:window-width="1920"
     inkscape:window-height="1030"
     id="namedview3400"
     showgrid="false"
     inkscape:zoom="47.333333"
     inkscape:cx="9"
     inkscape:cy="9"
     inkscape:window-x="1920"
     inkscape:window-y="0"
     inkscape:window-maximized="1"
     inkscape:current-layer="svg3389" />
  <!-- Generator: Sketch 46.1 (44463) - http://www.bohemiancoding.com/sketch -->
  <title
     id="title3391">checkbox-checked</title>
  <desc
     id="desc3393">Created with Sketch.</desc>
  <defs
     id="defs3395" />
  <g
     id="Material-Icons"
     stroke="none"
     stroke-width="1"
     fill="none"
     fill-rule="evenodd">
    <g
       id="checkbox-checked"
       fill-rule="nonzero"
       fill="#000000">
      <path
         d="M16,0 L2,0 C0.89,0 0,0.9 0,2 L0,16 C0,17.1 0.89,18 2,18 L16,18 C17.11,18 18,17.1 18,16 L18,2 C18,0.9 17.11,0 16,0 Z M7,14 L2,9 L3.41,7.59 L7,11.17 L14.59,3.58 L16,5 L7,14 Z"
         id="Shape" />
    </g>
  </g>
  <path
     style="fill:#ffffff;stroke:none;stroke-width:1px;stroke-linecap:butt;stroke-linejoin:miter;stroke-opacity:1"
     d="M 4.4988668,11.485487 2.011181,8.9977337 2.7069274,8.302227 3.4026738,7.6067201 5.2036944,9.3971075 7.0047148,11.187495 10.798555,7.3936984 l 3.79384,-3.7937965 0.697043,0.6972828 0.697043,0.6972829 -4.489349,4.4893859 C 9.0279906,11.953016 7.0030067,13.973239 6.9971681,13.973239 c -0.00584,0 -1.1300742,-1.119488 -2.4983013,-2.487752 z"
     id="path3404"
     inkscape:connector-curvature="0" />
  <path
     style="fill:#ffffff"
     d="M 4.4988668,11.485487 2.011181,8.9977337 2.7067226,8.3024318 3.4022643,7.6071296 l 1.802741,1.7883 1.8027412,1.7883004 3.7923245,-3.7919142 3.792324,-3.7919139 0.697043,0.6972828 0.697043,0.6972829 -4.489349,4.4893859 C 9.0279906,11.953016 7.0030067,13.973239 6.9971681,13.973239 c -0.00584,0 -1.1300742,-1.119488 -2.4983013,-2.487752 z"
     id="path3406"
     inkscape:connector-curvature="0" />
</svg>
